PathFileType	4	(X/Y/Z)	C:/Users/beibeiliu/ov580/test_trc\sequence.36_training_dense_right.trc
DataRate	CameraRate	NumFrames	NumMarkers	Units	OrigDataRate	OrigDataStartFrame	OrigNumFrames
120	120	16	19	mm	120	1	165
Frame#	Time	ThumbCMC			ThumbMCP			ThumbIP			ThumbTip			IndexMCP			IndexPIP			IndexTip			MiddleMCP			MiddlePIP			MiddleTip			RingMCP			RingPIP			RingTip			PinkyMCP			PinkyPIP			PinkyTip			BackHand1			BackHand2			BackHand3	
		X0	Y0	Z0	X1	Y1	Z1	X2	Y2	Z2	X3	Y3	Z3	X4	Y4	Z4	X5	Y5	Z5	X6	Y6	Z6	X7	Y7	Z7	X8	Y8	Z8	X9	Y9	Z9	X10	Y10	Z10	X11	Y11	Z11	X12	Y12	Z12	X13	Y13	Z13	X14	Y14	Z14	X15	Y15	Z15	X16	Y16	Z16	X17	Y17	Z17	X18	Y18	Z18	
0	0	51.814	58.3076	41.0282	36.78	50.2882	10.9669	39.1979	44.9242	-13.6147	45.5949	37.5391	-33.187	82.2197	91.915	-6.24396	86.5468	102.389	-29.1255	86.8452	113.456	-43.1478	109.812	83.2185	-3.00575	118.678	95.1202	-20.9386	135.317	104.787	-36.8327	118.812	65.681	-3.39971	128.715	69.0871	-24.9324	138.432	69.6593	-44.804	124.599	45.2732	3.10034	132.102	40.8476	-14.421	139.266	37.0896	-29.4451	104.697	61.0554	37.8925	96.6245	57.0878	64.1676	79.3853	72.9526	48.2011	
1	0.00833333	67.4761	57.8808	40.4523	56.4875	48.5105	17.6756	56.3589	45.2216	-9.76843	53.3641	39.0178	-28.4713	103.031	85.063	-1.00505	108.632	97.3359	-21.979	117.257	105.819	-39.7002	123.974	74.0622	-1.19112	136.517	81.273	-27.3754	148.453	81.7963	-49.23	132.914	55.4739	-2.60987	142.746	49.5809	-20.2415	144.148	49.1185	-45.5488	138.42	34.3882	11.336	149.681	29.3576	-5.92693	157.204	28.3036	-23.1172	119.561	51.8564	43.3266	110.968	48.4706	68.8267	97.6452	69.4658	51.0194	
2	0.0166667	72.5287	58.1692	47.2401	64.0189	50.189	18.2257	59.7244	47.9336	-6.49782	59.4003	42.8649	-24.9942	114.393	77.653	-1.08983	118.366	86.7411	-19.276	129.366	92.6176	-37.0921	131.785	62.4215	-9.20431	135.85	61.4877	-34.5939	137.491	50.9393	-60.7535	138.633	41.181	-0.803499	141.677	38.1298	-21.3985	141.893	31.3877	-44.7684	144.417	24.5183	14.8029	153.585	17.5404	2.23089	164.856	16.4752	-10.4868	127.163	43.8469	44.088	121.174	41.7485	68.8743	108.333	63.6213	54.159	
3	0.025	70.8826	62.8377	44.4009	56.2509	57.2341	21.1441	54.1306	53.5726	-6.14376	48.8178	48.6653	-24.9729	109.72	74.4971	-3.50897	117.022	80.4342	-27.5511	127.576	82.8474	-43.0154	124.339	50.3044	-12.5584	119.29	42.7968	-41.2166	106.684	27.772	-59.0978	132.254	36.045	-4.90015	135.157	28.4333	-27.4891	131.298	23.1397	-47.6674	135.87	18.933	15.4782	144.815	12.5354	4.42454	162.466	7.45344	-8.82777	122.099	43.4493	41.9442	114.281	39.0915	68.469	105.217	65.0958	47.8504	
4	0.0333333	63.8477	68.6699	41.216	48.4771	62.6383	19.6936	42.25	60.4807	-5.16855	36.6133	55.0959	-25.1884	103.564	72.4629	-11.1969	106.539	77.2292	-29.644	116.174	76.5279	-48.717	107.534	50.8875	-15.0219	95.1021	37.8388	-43.4542	75.6367	24.3115	-53.6678	117.015	33.6029	-4.54571	119.637	27.4302	-32.293	117.639	19.9882	-52.8396	120.803	15.464	14.6672	135.148	8.56724	-0.640916	148.453	2.40839	-11.1433	110.811	41.1944	40.7631	108.448	38.0237	65.733	99.7352	61.0878	48.4796	
5	0.0416667	56.1751	72.124	38.7156	40.2791	67.1634	18.8332	31.5125	65.854	-0.905529	24.2175	62.848	-21.4587	90.9017	74.5712	-13.9353	97.7295	72.1806	-36.0179	102.573	79.5584	-57.0527	94.9373	47.8778	-18.483	80.2009	36.5435	-43.2761	53.6224	27.2084	-47.761	104.643	33.5271	-11.5245	106.733	24.2719	-32.0834	100.952	21.6809	-52.5131	109.099	12.8718	9.60807	117.382	8.86074	-2.66859	134.133	-2.29512	-14.9609	101.746	36.9658	34.8145	96.882	40.1624	58.9461	92.1005	62.4116	41.4796	
6	0.05	59.0574	73.5736	39.103	39.6736	75.8527	18.9703	30.052	75.8563	-4.68759	21.1117	72.7172	-21.8986	92.4922	71.3077	-15.5627	95.8166	73.431	-39.457	101.006	68.4592	-59.2536	92.3869	48.3289	-21.1147	74.5225	38.6447	-43.8353	44.6928	31.4662	-42.3938	101.631	26.6797	-11.1537	100.792	19.7067	-33.0678	94.9366	15.5452	-53.0114	99.6531	13.158	9.11863	109.673	-0.125799	-5.30569	120.875	-9.39584	-21.2374	97.7517	38.4689	36.2641	93.251	40.8452	59.7632	91.4323	63.1658	40.5416	
7	0.0583333	76.0181	76.1292	42.6905	59.5983	78.943	17.5308	51.4165	79.9711	-4.83083	43.3177	79.962	-25.0899	109.371	63.9299	-15.9028	110.674	58.4759	-41.5056	112.509	56.6941	-63.6404	103.884	36.8232	-20.8666	85.2476	33.1998	-43.7346	51.8592	33.6211	-40.0631	105.695	16.6116	-9.96758	103.747	9.24807	-32.4635	98.0574	10.4812	-52.0499	99.888	5.9579	11.3614	105.637	-4.88449	-4.45032	111.465	-19.1119	-22.1741	107.478	30.6992	33.3699	102.462	34.219	62.7988	106.07	58.8576	43.7642	
8	0.0666667	110.206	65.0653	39.5364	97.3984	77.0523	17.8722	92.6197	79.3879	-3.01973	86.6408	84.7091	-23.427	133.62	39.3497	-14.4619	135.118	36.2499	-38.215	131.963	32.585	-57.534	121.697	15.9442	-14.6136	106.066	16.1985	-43.3039	85.0617	27.3526	-50.9233	112.863	4.90481	-3.0907	109.116	-2.4912	-26.4889	101.558	-4.6361	-51.0088	99.2055	-6.47696	12.1311	98.8551	-15.3062	-7.13787	93.6762	-26.8031	-21.3689	115.146	10.8751	38.4858	112.964	17.1761	62.8267	126.499	37.5468	46.9752	
9	0.075	142.342	48.5717	46.9035	137.358	62.1444	20.2213	138.341	67.1255	-0.200363	138.51	72.9558	-22.2329	147.263	9.13499	-9.66324	150.87	9.29096	-30.9959	146.067	7.17843	-56.8737	130.944	-6.82754	-11.1976	120.983	-9.3207	-38.8226	111.132	-0.86018	-59.2975	111.415	-9.5694	1.56263	107.803	-15.7	-21.5854	102.687	-16.8287	-44.7281	89.3149	-9.8107	13.7007	84.6311	-15.0621	-5.02043	79.0603	-21.0753	-22.6296	117.886	2.52983	42.7069	115.459	4.80943	64.7685	137.967	12.0206	52.2621	
10	0.0833333	153.353	20.7804	51.2838	164.022	34.2494	25.7522	170.361	39.2451	5.73931	172.759	41.8081	-15.3391	148.572	-14.7306	0.620216	151.383	-19.1821	-27.4484	146.23	-21.0746	-46.733	122.176	-23.4975	-3.1112	115.458	-30.3224	-25.6552	110.854	-29.9148	-51.7211	101.891	-17.8189	3.11682	97.6242	-22.5967	-16.8517	94.2988	-24.3826	-38.8281	82.0732	-2.6323	14.8723	77.0723	-4.72674	-3.37212	66.9429	-7.65473	-23.0529	112.618	-6.37642	48.7076	111.922	-2.26426	73.0138	135.113	-4.17638	57.4583	
11	0.0916667	147.553	5.10115	62.392	156.583	8.92533	36.2541	169.973	6.11301	12.3515	179.46	5.80135	-5.86432	134.992	-34.5757	7.72168	134.202	-41.9162	-16.0473	134.772	-45.5099	-38.9804	109.024	-34.0787	7.57536	99.9185	-43.9657	-17.1955	97.0703	-50.6695	-40.452	88.5973	-22.0299	8.88311	82.7398	-25.2848	-11.5702	81.8166	-28.6118	-35.8269	75.4009	-3.60445	13.324	66.8137	-0.838249	-3.23523	58.6348	-0.0282583	-18.7755	95.925	-13.0771	49.7701	98.6478	-4.91472	76.2629	123.932	-17.485	60.9055	
12	0.1	126.574	-1.14329	64.2277	133.812	-1.08669	38.4462	144.292	-6.29346	20.4916	154.14	-12.4446	3.30951	106.58	-46.4568	15.6527	104.036	-55.1417	-5.3092	107.22	-62.1726	-23.5879	79.7345	-43.0731	11.688	68.9694	-50.3637	-10.7766	64.2578	-58.2326	-30.8895	63.5585	-24.6909	12.0538	55.8099	-26.5052	-10.8914	58.7312	-30.4522	-31.9119	49.8009	-3.08745	18.0354	46.5584	-3.09514	1.07444	39.3525	-3.76296	-16.2865	72.3044	-14.6603	57.3173	75.6341	-2.24119	79.445	98.1134	-19.2955	70.7033	
13	0.108333	96.0683	3.61981	57.2626	105.959	2.96954	31.1153	112.018	-5.27472	12.6462	122.066	-9.49054	-2.46137	73.6281	-41.0408	18.4907	70.9557	-55.7566	-1.5932	71.1196	-68.2295	-23.8711	47.1144	-35.9425	16.9489	39.5476	-47.9287	-4.49724	31.1056	-58.2474	-30.0072	32.0368	-19.1435	11.236	33.1348	-22.1049	-10.3594	31.2901	-18.1902	-30.919	21.4584	1.78956	22.8112	15.5183	0.456492	1.86281	10.4501	-3.8169	-11.0254	47.3891	-6.78832	59.8083	50.8771	3.74917	78.3876	73.642	-13.4156	69.5844	
14	0.116667	86.1315	10.1287	50.6992	96.5385	11.3808	25.0122	98.0484	3.43138	4.03258	104.545	-3.86152	-17.425	61.9827	-39.2948	12.8757	56.5936	-51.1723	-7.05379	57.4556	-62.4548	-24.0966	38.2123	-32.1246	10.1951	26.9808	-40.4252	-8.6649	20.059	-50.809	-33.8505	20.1789	-10.9541	7.69767	20.9679	-9.09002	-20.029	29.4182	1.35477	-39.853	9.83529	5.9176	20.0927	0.228109	5.66788	5.15822	-8.94503	-1.13317	-13.0846	32.2155	0.162759	55.128	42.0534	10.5259	76.4811	60.8251	-7.04707	61.1894	
15	0.125	88.2593	12.662	47.8737	94.9577	16.1223	21.4494	99.1033	10.8558	-0.0699032	100.407	7.37906	-20.4436	62.9265	-33.515	8.63361	59.7169	-44.8615	-12.4152	58.2584	-56.1242	-28.5616	37.4623	-26.4569	3.13012	32.2447	-34.9516	-19.7041	25.5782	-40.7851	-40.1392	25.9878	-6.66704	1.55079	22.7632	2.70969	-20.9198	37.171	19.3134	-38.1779	9.16244	9.85524	17.6967	0.880098	8.93256	2.69784	-9.16935	1.94256	-12.0303	31.2885	4.15402	54.0384	37.855	13.8641	72.994	61.4405	-1.15763	61.3481	
